<?xml version="1.0" encoding="UTF-8"?>
<svg version="1.1" xmlns="http://www.w3.org/2000/svg" width="128" height="128">
<path d="M0 0 C4.20915466 0.43687612 5.39830847 1.75284511 8.34286499 4.74414062 C9.04643631 5.44639771 9.04643631 5.44639771 9.76422119 6.1628418 C11.30460614 7.70739301 12.82267113 9.27206536 14.34140015 10.83789062 C15.40768049 11.91536651 16.47529705 12.99152156 17.54418945 14.06640625 C20.34908774 16.89417447 23.13549996 19.73949519 25.91842651 22.58886719 C28.76330292 25.49520509 31.62531678 28.38455692 34.4859314 31.27539062 C40.09267697 36.94641643 45.68000497 42.63610212 51.25546265 48.33789062 C54.86885542 46.81571361 57.11684732 44.68592698 59.83700562 41.88818359 C60.73829193 40.96738007 61.63957825 40.04657654 62.56817627 39.09786987 C63.04529934 38.60602077 63.52242241 38.11417168 64.01400375 37.60741806 C65.51361354 36.06364461 67.02113995 34.52803891 68.53137207 32.99465942 C72.82319823 28.6357466 77.10662504 24.26885221 81.36923218 19.88134766 C83.98043901 17.19479506 86.60610352 14.52312385 89.24158096 11.86038589 C90.24148884 10.84438556 91.23581672 9.82286173 92.2243309 8.79577255 C93.60725563 7.35982701 95.01080118 5.94382776 96.41513062 4.52880859 C97.20692719 3.71765594 97.99872375 2.9065033 98.81451416 2.07077026 C101.84611485 -0.08142555 103.61386655 -0.09017479 107.25546265 0.33789062 C108.25546265 1.33789062 108.25546265 1.33789062 108.59335327 4.08242798 C108.15647715 8.29158264 106.84050816 9.48073644 103.84921265 12.42529297 C103.14695557 13.12886429 103.14695557 13.12886429 102.43051147 13.84664917 C100.88596026 15.38703411 99.32128791 16.90509911 97.75546265 18.42382812 C96.67798677 19.49010847 95.60183171 20.55772503 94.52694702 21.62661743 C91.69917881 24.43151572 88.85385808 27.21792794 86.00448608 30.00085449 C83.09814818 32.8457309 80.20879635 35.70774476 77.31796265 38.56835938 C71.64693684 44.17510495 65.95725115 49.76243295 60.25546265 55.33789062 C61.77915595 58.94573907 63.90973921 61.21791727 66.68930054 63.95117188 C67.60687637 64.85891357 68.52445221 65.76665527 69.46983337 66.7019043 C69.96006044 67.18227142 70.45028751 67.66263855 70.95536995 68.15756226 C72.49415078 69.6661075 74.02609551 71.18129639 75.55635071 72.69848633 C79.90698539 77.00942159 84.27026208 81.30748153 88.63656616 85.60253906 C91.31003362 88.23330252 93.97616066 90.87132864 96.63809013 93.51376343 C97.65309553 94.51820263 98.67100513 95.51971588 99.69185066 96.51821899 C101.1183087 97.91349653 102.53490085 99.31883895 103.95101929 100.72460938 C105.16441734 101.91896606 105.16441734 101.91896606 106.40232849 103.13745117 C108.23875657 105.31805358 109.08731945 106.50339006 109.25546265 109.33789062 C107.31796265 111.58789062 107.31796265 111.58789062 105.25546265 113.33789062 C100.97739513 111.94201581 98.52728804 109.97579547 95.37338257 106.79638672 C94.91423462 106.33767685 94.45508667 105.87896698 93.98202515 105.40635681 C92.47610024 103.89835288 90.98106351 102.38002689 89.4859314 100.86132812 C88.4399832 99.80978083 87.3933678 98.75889681 86.34611511 97.70864868 C83.59895623 94.95006581 80.86092822 92.18259158 78.12472534 89.41314697 C75.32807638 86.58574441 72.52285672 83.76687365 69.71835327 80.94726562 C64.22231505 75.41910643 58.73589818 69.88152282 53.25546265 64.33789062 C49.64206988 65.86006764 47.39407798 67.98985427 44.67391968 70.78759766 C43.77263336 71.70840118 42.87134705 72.62920471 41.94274902 73.57791138 C41.22706442 74.31568502 41.22706442 74.31568502 40.49692154 75.06836319 C38.99731176 76.61213664 37.48978534 78.14774234 35.97955322 79.68112183 C31.68772706 84.04003465 27.40430026 88.40692904 23.14169312 92.79443359 C20.53048628 95.48098619 17.90482178 98.1526574 15.26934433 100.81539536 C14.26943645 101.83139569 13.27510857 102.85291952 12.28659439 103.8800087 C10.90366966 105.31595424 9.50012411 106.73195349 8.09579468 108.14697266 C6.90809982 109.36370163 6.90809982 109.36370163 5.69641113 110.60501099 C2.66481044 112.7572068 0.89705874 112.76595604 -2.74453735 112.33789062 C-3.74453735 111.33789062 -3.74453735 111.33789062 -4.08242798 108.59335327 C-3.64555186 104.38419861 -2.32958287 103.19504481 0.66171265 100.25048828 C1.12988403 99.78144073 1.59805542 99.31239319 2.08041382 98.82913208 C3.62496504 97.28874714 5.18963738 95.77068214 6.75546265 94.25195312 C7.83293853 93.18567278 8.90909358 92.11805622 9.98397827 91.04916382 C12.81174649 88.24426553 15.65706721 85.45785331 18.50643921 82.67492676 C21.41277712 79.83005035 24.30212895 76.96803649 27.19296265 74.10742188 C32.86398845 68.5006763 38.55367414 62.9133483 44.25546265 57.33789062 C42.73328563 53.72449785 40.60349901 51.47650595 37.80575562 48.75634766 C36.88495209 47.85506134 35.96414856 46.95377502 35.01544189 46.025177 C34.27766825 45.3094924 34.27766825 45.3094924 33.52499008 44.57934952 C31.98121663 43.07973973 30.44561093 41.57221332 28.91223145 40.0619812 C24.55331862 35.77015504 20.18642423 31.48672823 15.79891968 27.22412109 C13.11236708 24.61291426 10.44069587 21.98724976 7.77795792 19.35177231 C6.76195758 18.35186443 5.74043375 17.35753655 4.71334457 16.36902237 C3.27739903 14.98609764 1.86139979 13.58255209 0.44638062 12.17822266 C-0.36477203 11.38642609 -1.17592468 10.59462952 -2.01165771 9.77883911 C-4.16385353 6.74723842 -4.17260277 4.97948672 -3.74453735 1.33789062 C-2.74453735 0.33789062 -2.74453735 0.33789062 0 0 Z " fill="#000000" transform="translate(11.744537353515625,7.662109375)"/>
</svg>
